<svg width="893" height="176" viewBox="0 0 893 176" xmlns="http://www.w3.org/2000/svg">
    <g fill-rule="nonzero" fill="none">
        <g fill="#002957">
            <path d="M168.76 72.3v3.25c0 .94-.44 1.49-1.38 1.71-.06 0-.17.06-.33.06s-.44.11-.83.17c-.39.06-.99.17-1.65.28v18.37c0 2.37-.39 4.57-1.16 6.55-.77 1.98-1.82 3.74-3.25 5.23-1.43 1.43-3.19 2.59-5.23 3.41-2.04.83-4.35 1.21-6.88 1.21-2.53 0-4.84-.39-6.88-1.21a15.43 15.43 0 0 1-5.17-3.41c-1.43-1.49-2.53-3.25-3.3-5.23-.77-1.98-1.1-4.18-1.1-6.55V77.77c-.66-.11-1.27-.22-1.65-.28-.38-.06-.66-.17-.83-.17-.17 0-.28-.06-.33-.06-.94-.22-1.38-.77-1.38-1.71V72.3h15.95v3.25c0 .94-.44 1.49-1.38 1.71-.06 0-.22.06-.39.06s-.5.11-.94.17c-.44.06-1.05.17-1.71.28v18.32c0 1.54.17 2.92.61 4.13a9.198 9.198 0 0 0 1.82 3.19c.77.88 1.71 1.49 2.81 1.98s2.42.72 3.85.72c1.43 0 2.75-.22 3.85-.72s2.09-1.1 2.86-1.98c.77-.88 1.32-1.93 1.76-3.14.39-1.21.66-2.59.66-4.13V77.77c-.66-.11-1.27-.22-1.71-.28-.44-.06-.77-.17-.94-.17-.17 0-.33-.06-.39-.06-.94-.22-1.38-.77-1.38-1.71V72.3h16.02zM212.54 72.3v3.25c0 .94-.44 1.49-1.38 1.71-.06 0-.17.06-.33.06s-.44.11-.83.17c-.39.06-.94.17-1.6.28v34.32h-3.85c-.61 0-1.05-.11-1.43-.28-.38-.17-.77-.5-1.16-.99l-20.79-26.46c.06.61.11 1.16.11 1.71s.06 1.1.06 1.6v18.98c2.31.33 3.47.5 3.58.5.94.22 1.38.77 1.38 1.71v3.25h-15.62v-3.25c0-.94.44-1.49 1.38-1.71.06 0 .17 0 .33-.06.17-.06.44-.11.83-.17.39-.06.99-.17 1.65-.28V77.76c-.66-.11-1.27-.22-1.65-.28-.38-.06-.66-.17-.83-.17-.17 0-.28-.06-.33-.06-.94-.22-1.38-.77-1.38-1.71v-3.25h8.03c.33 0 .61.06.83.06.22 0 .44.06.61.17.17.06.33.17.5.33.17.16.33.39.55.66l20.9 26.57c-.06-.66-.11-1.27-.17-1.87-.06-.6-.06-1.21-.06-1.76v-18.7c-2.31-.33-3.47-.5-3.58-.5-.94-.22-1.38-.77-1.38-1.71v-3.25h15.62l.01.01zM228.49 77.3c-.17 0-.44.11-.83.17-.39.06-.94.17-1.6.28v28.88c.66.11 1.21.22 1.6.28.39.06.66.17.83.17.17 0 .28.06.33.06.94.22 1.38.77 1.38 1.71v3.25h-15.73v-3.25c0-.94.44-1.49 1.38-1.71.06 0 .17-.06.33-.06.17-.06.44-.11.83-.17.39-.06.99-.17 1.65-.28V77.75c-.66-.11-1.27-.22-1.65-.28-.39-.06-.66-.17-.83-.17-.17-.06-.28-.06-.33-.06-.94-.22-1.38-.77-1.38-1.71v-3.25h15.73v3.25c0 .94-.44 1.49-1.38 1.71-.06 0-.17.06-.33.06zM274.75 72.3v3.25c0 .94-.44 1.49-1.38 1.71-.11 0-.17.06-.33.06s-.39.11-.77.17c-.39.06-.94.17-1.6.28l-13.86 34.32h-6.66l-13.92-34.32c-.66-.11-1.16-.22-1.54-.28-.38-.06-.66-.17-.83-.17-.17-.06-.22-.06-.33-.06-.94-.22-1.38-.77-1.38-1.71V72.3H247v3.25c0 .94-.44 1.49-1.38 1.71-.06 0-.17 0-.28.06-.11.06-.28.11-.55.17-.27.06-.55.17-.88.22l7.92 20.57c.33.77.61 1.65.88 2.59s.55 1.93.83 2.97c.44-2.09.99-3.96 1.6-5.56l7.87-20.57c-.33-.06-.61-.17-.88-.22-.27-.05-.5-.11-.61-.17-.11-.06-.22-.06-.28-.06-.94-.22-1.38-.77-1.38-1.71V72.3H274.75zM306.04 72.3v10.45h-3.19c-.72 0-1.1-.39-1.27-1.05-.06-.44-.22-1.6-.39-3.52h-12.82v11h13.48v5.72h-13.48v11.22h12.82c.17-1.93.33-3.08.39-3.52.17-.66.55-1.05 1.27-1.05h3.19v10.51h-29.26v-3.25c0-.94.44-1.49 1.38-1.71.06 0 .17-.06.33-.06s.44-.11.83-.17c.39-.06.99-.17 1.65-.28V77.71c-.66-.11-1.27-.22-1.65-.28-.39-.06-.66-.17-.83-.17-.17 0-.28-.06-.33-.06-.94-.22-1.38-.77-1.38-1.71v-3.25h29.26v.06zM343.94 108.82v3.25h-7.43c-.66 0-1.21-.11-1.65-.39-.44-.28-.77-.61-1.1-1.1l-8.36-12.76c-.33-.5-.66-.77-1.05-.99-.39-.22-.94-.33-1.65-.33h-2.81v10.12c.66.11 1.27.22 1.65.28.38.06.66.17.83.17.17 0 .28.06.33.06.94.22 1.38.77 1.38 1.71v3.25h-15.73v-3.25c0-.94.44-1.49 1.38-1.71.06 0 .17-.06.33-.06.17-.06.44-.11.83-.17.39-.06.99-.17 1.65-.28V77.74c-.66-.11-1.27-.22-1.65-.28-.38-.06-.66-.17-.83-.17-.17 0-.28-.06-.33-.06-.94-.22-1.38-.77-1.38-1.71v-3.25h15.9c2.7 0 5.06.28 6.99.83 1.93.55 3.52 1.38 4.73 2.37 1.21.99 2.2 2.26 2.75 3.63.61 1.43.88 2.92.88 4.62 0 1.32-.22 2.59-.61 3.8s-.99 2.26-1.71 3.25c-.72.99-1.65 1.82-2.75 2.53-1.1.71-2.37 1.32-3.74 1.76.94.55 1.76 1.32 2.42 2.31l6.27 9.24c.66.11 1.27.22 1.71.28.44.06.72.17.94.17.22 0 .39.06.44.06.94.22 1.38.77 1.38 1.71l-.01-.01zm-13.59-19.58c.66-.61 1.16-1.38 1.49-2.2.33-.82.5-1.76.5-2.75 0-2.04-.66-3.58-1.98-4.68-1.32-1.1-3.36-1.6-6.11-1.6h-4.35v13.2h4.24c1.38 0 2.59-.22 3.63-.55 1.04-.33 1.93-.83 2.59-1.43l-.01.01zM371.94 99.63c0 1.82-.33 3.41-.94 5.01-.61 1.6-1.49 2.97-2.7 4.13-1.16 1.16-2.64 2.09-4.35 2.75-1.71.66-3.63.99-5.83.99h-.83c-3.52 0-7.32-.72-11.39-2.09v-10.23h3.14c.72 0 1.1.33 1.27.99.11.5.28 2.04.5 4.57 1.6.5 4.13.72 7.54.72 2.09 0 3.74-.5 4.9-1.49 1.16-.99 1.71-2.42 1.71-4.29 0-1.05-.28-1.93-.77-2.59-.5-.66-1.21-1.21-2.09-1.65-.88-.44-1.82-.83-2.92-1.16-1.1-.33-2.26-.61-3.36-.99a37.79 37.79 0 0 1-3.36-1.32c-1.1-.49-2.09-1.21-2.97-2.04-.88-.83-1.54-1.82-2.04-3.08-.5-1.21-.83-2.75-.83-4.57 0-1.43.28-2.86.88-4.24.55-1.38 1.43-2.64 2.53-3.69 1.1-1.05 2.48-1.87 4.07-2.53 1.6-.66 3.47-.99 5.56-.99 3.91 0 7.7.77 11.39 2.26v10.18h-3.14c-.72 0-1.1-.39-1.27-1.05-.11-.5-.28-1.98-.5-4.46-1.38-.61-3.58-.88-6.44-.88-1.05 0-1.87.11-2.64.33-.77.28-1.43.61-1.93 1.05-.5.44-.94.99-1.21 1.6-.27.61-.39 1.32-.39 2.04 0 .94.33 1.71.83 2.31.5.61 1.16 1.16 2.04 1.6.88.44 1.87.88 2.97 1.21 1.1.33 2.2.72 3.36 1.1 1.16.39 2.26.88 3.36 1.38 1.1.5 2.09 1.16 2.97 1.98.88.83 1.6 1.76 2.09 2.92.55 1.16.77 2.59.77 4.24l.02-.02zM387.84 77.3c-.17 0-.44.11-.83.17-.39.06-.94.17-1.6.28v28.88c.66.11 1.21.22 1.6.28.39.06.66.17.83.17.17 0 .28.06.33.06.94.22 1.38.77 1.38 1.71v3.25h-15.73v-3.25c0-.94.44-1.49 1.38-1.71.06 0 .17-.06.33-.06.17-.06.44-.11.83-.17.39-.06.99-.17 1.65-.28V77.75c-.66-.11-1.27-.22-1.65-.28-.38-.06-.66-.17-.83-.17-.17-.06-.28-.06-.33-.06-.94-.22-1.38-.77-1.38-1.71v-3.25h15.73v3.25c0 .94-.44 1.49-1.38 1.71-.06 0-.17.06-.33.06zM424.58 72.3v9.41h-3.14c-.72 0-1.16-.39-1.32-1.05-.06-.33-.17-1.05-.28-2.26h-8.09v28.22c.66.11 1.21.22 1.6.28.39.06.66.17.83.17.17 0 .28.06.33.06.94.22 1.43.77 1.43 1.71v3.25h-15.73v-3.25c0-.94.44-1.49 1.38-1.71.06 0 .17-.06.33-.06s.44-.11.83-.17c.39-.06.94-.17 1.6-.28V78.35h-8.09c-.11 1.21-.22 1.98-.28 2.31-.17.66-.55 1.05-1.27 1.05h-3.19V72.3h33.06zM464.52 72.3v3.25c0 .94-.44 1.49-1.38 1.71-.11 0-.17.06-.33.06s-.44.11-.83.17c-.39.06-.94.17-1.6.28l-11.22 18.87v10.01c.66.11 1.21.22 1.6.28.39.06.66.17.83.17.17 0 .28.06.33.06.94.22 1.38.77 1.38 1.71v3.25h-15.73v-3.25c0-.94.44-1.49 1.38-1.71.06 0 .22 0 .39-.06s.44-.11.83-.17c.39-.06.94-.17 1.6-.28V96.64l-11.22-18.87c-.66-.11-1.27-.22-1.65-.28-.38-.06-.66-.17-.83-.17-.17-.06-.28-.06-.33-.06-.94-.22-1.38-.77-1.38-1.71V72.3h14.85v3.25c0 .94-.44 1.49-1.38 1.71-.06 0-.11.06-.22.06-.11.06-.33.11-.55.17-.22.06-.5.11-.77.17l5.28 9.63c.44.77.77 1.49 1.1 2.2.33.71.55 1.43.83 2.09.22-.72.5-1.38.83-2.09.33-.71.66-1.43 1.1-2.2l5.23-9.63c-.28-.06-.61-.11-.83-.17-.22-.06-.39-.17-.5-.17-.11-.06-.22-.06-.28-.06-.94-.22-1.38-.77-1.38-1.71V72.3h14.85zM517.71 100.29c-.99 2.48-2.31 4.62-4.07 6.44-1.76 1.82-3.91 3.25-6.38 4.24-2.47.99-5.17 1.54-8.2 1.54-3.03 0-5.78-.55-8.25-1.54-2.48-.99-4.62-2.42-6.38-4.24-1.76-1.82-3.14-3.96-4.13-6.44-.99-2.48-1.43-5.23-1.43-8.14s.44-5.61 1.43-8.09c.99-2.48 2.37-4.62 4.13-6.44 1.76-1.82 3.91-3.25 6.38-4.24 2.47-.99 5.23-1.54 8.25-1.54 3.02 0 5.72.5 8.2 1.54 2.48 1.04 4.62 2.42 6.38 4.24 1.76 1.82 3.08 3.96 4.07 6.44.99 2.48 1.49 5.17 1.49 8.09s-.5 5.67-1.49 8.14zm-6.99-13.97c-.55-1.76-1.38-3.19-2.48-4.4-1.1-1.21-2.42-2.15-3.96-2.81-1.54-.66-3.3-.94-5.23-.94-1.93 0-3.74.28-5.28.94-1.54.66-2.86 1.6-3.96 2.81s-1.93 2.64-2.53 4.4c-.6 1.76-.88 3.63-.88 5.83s.28 4.13.88 5.89c.6 1.76 1.43 3.19 2.53 4.4 1.1 1.21 2.42 2.15 3.96 2.81 1.54.66 3.36.94 5.28.94 1.92 0 3.69-.28 5.23-.94 1.54-.66 2.86-1.6 3.96-2.81s1.93-2.64 2.48-4.4c.55-1.76.88-3.69.88-5.89 0-2.2-.33-4.07-.88-5.83zM551.75 72.3v10.45h-3.19c-.72 0-1.1-.39-1.27-1.05-.06-.44-.22-1.6-.39-3.52h-14.19v11.77h13.92v5.89h-13.92v10.78c.66.11 1.27.22 1.65.28.38.06.66.17.83.17.17 0 .28.06.33.06.94.22 1.38.77 1.38 1.71v3.25h-15.79v-3.25c0-.94.44-1.49 1.38-1.71.06 0 .17-.06.33-.06s.44-.11.83-.17c.39-.06.99-.17 1.65-.28V77.74c-.66-.11-1.27-.22-1.65-.28-.38-.06-.66-.17-.83-.17-.17-.06-.28-.06-.33-.06-.94-.22-1.38-.77-1.38-1.71v-3.25h30.64v.03zM589.38 72.3v3.25c0 .94-.44 1.49-1.38 1.71-.06 0-.17.06-.33.06s-.44.11-.83.17c-.39.06-.99.17-1.65.28v20.19c0 2.26-.28 4.24-.83 6.05-.55 1.81-1.32 3.3-2.42 4.57-1.1 1.27-2.48 2.26-4.13 2.92-1.65.66-3.52 1.05-5.67 1.05-.99 0-1.98-.06-2.92-.17-.94-.11-1.98-.33-3.03-.61l.39-4.4c.06-.39.22-.66.5-.94.28-.22.66-.39 1.16-.39.33 0 .72.06 1.21.17.49.11 1.16.22 1.93.22 1.05 0 1.93-.11 2.75-.44.83-.28 1.49-.83 2.04-1.49s.94-1.49 1.21-2.53c.28-1.05.44-2.37.44-3.85V77.77c-.66-.11-1.27-.22-1.76-.28-.49-.06-.83-.17-1.05-.17-.22 0-.44-.06-.5-.06-.94-.22-1.38-.77-1.38-1.71V72.3h16.25zM629.26 72.3v3.25c0 .94-.44 1.49-1.38 1.71-.11 0-.17.06-.33.06s-.44.11-.83.17c-.39.06-.94.17-1.6.28L613.9 96.64v10.01c.66.11 1.21.22 1.6.28.39.06.66.17.83.17.17 0 .28.06.33.06.94.22 1.38.77 1.38 1.71v3.25h-15.73v-3.25c0-.94.44-1.49 1.38-1.71.06 0 .22 0 .39-.06s.44-.11.83-.17c.39-.06.94-.17 1.6-.28V96.64l-11.22-18.87c-.66-.11-1.27-.22-1.65-.28-.38-.06-.66-.17-.83-.17-.17-.06-.28-.06-.33-.06-.94-.22-1.38-.77-1.38-1.71V72.3h14.85v3.25c0 .94-.44 1.49-1.38 1.71-.06 0-.11.06-.22.06-.11.06-.33.11-.55.17-.22.06-.5.11-.77.17l5.28 9.63c.44.77.77 1.49 1.1 2.2.33.71.55 1.43.83 2.09.22-.72.5-1.38.83-2.09.33-.71.66-1.43 1.1-2.2l5.23-9.63c-.28-.06-.61-.11-.83-.17-.22-.06-.39-.17-.5-.17-.11-.06-.22-.06-.28-.06-.94-.22-1.38-.77-1.38-1.71V72.3h14.85zM673.59 72.3v3.25c0 .94-.44 1.49-1.38 1.71-.11 0-.17.06-.33.06s-.39.11-.77.17c-.38.06-.94.17-1.6.28l-13.86 34.32h-6.66l-13.92-34.32c-.66-.11-1.16-.22-1.54-.28-.38-.06-.66-.17-.83-.17-.17-.06-.22-.06-.33-.06-.94-.22-1.38-.77-1.38-1.71V72.3h14.85v3.25c0 .94-.44 1.49-1.38 1.71-.06 0-.17 0-.28.06-.11.06-.28.11-.55.17-.27.06-.55.17-.88.22l7.92 20.57c.33.77.61 1.65.88 2.59s.55 1.93.83 2.97c.44-2.09.99-3.96 1.6-5.56l7.87-20.57c-.33-.06-.61-.17-.88-.22-.27-.05-.5-.11-.61-.17-.11-.06-.22-.06-.28-.06-.94-.22-1.38-.77-1.38-1.71V72.3H673.59zM708.52 109.26v2.81H695.1v-2.81c0-.66.39-1.1 1.1-1.43.11-.06.5-.17 1.1-.44l-.22-.61-1.98-5.39h-15.84l-2.04 5.67-.17.33c.61.28.99.39 1.1.44.72.33 1.1.77 1.1 1.43v2.81h-13.42v-2.81c0-.66.39-1.1 1.1-1.43.28-.11 1.32-.55 3.03-1.27l13.42-34.27h7.59l13.48 34.27c1.71.72 2.75 1.16 3.03 1.27.72.28 1.05.77 1.05 1.43h-.01zm-23.93-41.64c-.22.44-.5.83-.83 1.16-.33.33-.77.61-1.21.77-.44.16-.94.28-1.43.28s-.94-.11-1.38-.28c-.44-.17-.83-.44-1.16-.77-.33-.33-.55-.72-.77-1.16-.22-.44-.28-.94-.28-1.43s.06-.94.28-1.38c.22-.44.44-.88.77-1.21.33-.33.72-.61 1.16-.83.44-.22.88-.28 1.38-.28.5 0 .99.06 1.43.28.44.22.88.5 1.21.83.33.33.61.77.83 1.21.22.44.33.88.33 1.38 0 .5-.11.99-.33 1.43zm-3.41 28.55h12.05l-4.57-12.38c-.22-.61-.44-1.27-.72-2.04-.28-.77-.5-1.71-.77-2.64-.28.94-.55 1.82-.77 2.64-.22.82-.5 1.49-.72 2.09l-4.51 12.32.01.01zm15.35-28.55c-.22.44-.5.83-.83 1.16-.33.33-.72.61-1.16.77-.44.16-.94.28-1.43.28s-.99-.11-1.43-.28c-.44-.17-.83-.44-1.16-.77-.33-.33-.66-.72-.83-1.16-.22-.44-.28-.94-.28-1.43s.06-.94.28-1.38c.22-.44.5-.88.83-1.21.33-.33.72-.55 1.16-.77.44-.22.94-.33 1.43-.33s.99.11 1.43.33c.44.22.83.44 1.16.77.33.33.61.77.83 1.21.22.44.28.88.28 1.38 0 .5-.06.99-.28 1.43zM736.52 99.63c0 1.82-.33 3.41-.94 5.01-.61 1.6-1.49 2.97-2.7 4.13-1.16 1.16-2.64 2.09-4.35 2.75-1.71.66-3.63.99-5.83.99h-.83c-3.52 0-7.32-.72-11.39-2.09v-10.23h3.14c.72 0 1.1.33 1.27.99.11.5.28 2.04.5 4.57 1.6.5 4.13.72 7.54.72 2.09 0 3.74-.5 4.9-1.49 1.16-.99 1.71-2.42 1.71-4.29 0-1.05-.28-1.93-.77-2.59-.5-.66-1.21-1.21-2.09-1.65-.88-.44-1.82-.83-2.92-1.16-1.1-.33-2.26-.61-3.36-.99a37.79 37.79 0 0 1-3.36-1.32c-1.1-.49-2.09-1.21-2.97-2.04-.88-.83-1.54-1.82-2.04-3.08-.5-1.21-.83-2.75-.83-4.57 0-1.43.28-2.86.88-4.24.55-1.38 1.43-2.64 2.53-3.69 1.1-1.05 2.48-1.87 4.07-2.53 1.59-.66 3.47-.99 5.56-.99 3.91 0 7.7.77 11.39 2.26v10.18h-3.14c-.72 0-1.1-.39-1.27-1.05-.11-.5-.28-1.98-.5-4.46-1.38-.61-3.58-.88-6.44-.88-1.05 0-1.87.11-2.64.33-.77.28-1.43.61-1.93 1.05-.5.44-.94.99-1.21 1.6-.28.61-.39 1.32-.39 2.04 0 .94.33 1.71.83 2.31.5.61 1.16 1.16 2.04 1.6.88.44 1.87.88 2.97 1.21 1.1.33 2.2.72 3.36 1.1 1.16.38 2.26.88 3.36 1.38 1.1.5 2.09 1.16 2.97 1.98.88.83 1.6 1.76 2.09 2.92.55 1.16.77 2.59.77 4.24l.02-.02zM776.72 108.82v3.25h-15.4v-3.25c0-.94.44-1.49 1.38-1.71.05 0 .22 0 .44-.06s.5-.11.77-.17l-8.42-11c-.39-.5-.83-.77-1.27-.99-.44-.22-1.1-.33-1.93-.33h-2.37v12.05c.66.11 1.27.22 1.65.28.38.06.66.17.83.17.17 0 .28.06.33.06.94.22 1.38.77 1.38 1.71v3.25h-15.73v-3.25c0-.94.44-1.49 1.38-1.71.06 0 .17 0 .33-.06.17-.06.44-.11.83-.17.39-.06.99-.17 1.65-.28V77.73c-.66-.11-1.27-.28-1.65-.33-.38-.05-.66-.11-.83-.11-.17 0-.28-.06-.33-.06-.94-.22-1.38-.83-1.38-1.76v-3.19h15.73v3.19c0 .94-.44 1.54-1.38 1.76-.05 0-.17.06-.33.06-.17.06-.44.06-.83.11-.39.05-.99.22-1.65.33v11.22h1.76c.72 0 1.27-.06 1.71-.28.44-.22.88-.5 1.21-.94l8.2-10.4c-.11 0-.22-.06-.39-.06s-.27-.06-.33-.06c-.94-.22-1.38-.77-1.38-1.71v-3.25h14.63v3.25c0 .94-.44 1.49-1.38 1.71-.11 0-.22.06-.44.06s-.55.11-.99.17c-.44.06-.99.17-1.65.28l-8.97 11.11c-.44.5-.83.94-1.21 1.27-.38.33-.83.66-1.27.88.61.22 1.16.55 1.65.94.5.39.99.94 1.43 1.54l9.79 13.15c.66.11 1.16.22 1.6.28.44.06.77.17.99.17.22 0 .33.06.44.06.94.22 1.38.77 1.38 1.71l.02-.01zM816.82 72.3v3.25c0 .94-.44 1.49-1.38 1.71-.11 0-.17.06-.33.06s-.44.11-.83.17c-.39.06-.94.17-1.6.28l-11.22 18.87v10.01c.66.11 1.21.22 1.6.28.39.06.66.17.83.17.17 0 .27.06.33.06.94.22 1.38.77 1.38 1.71v3.25h-15.73v-3.25c0-.94.44-1.49 1.38-1.71.05 0 .22 0 .39-.06s.44-.11.83-.17c.39-.06.94-.17 1.6-.28V96.64l-11.22-18.87c-.66-.11-1.27-.22-1.65-.28-.38-.06-.66-.17-.83-.17-.17-.06-.27-.06-.33-.06-.94-.22-1.38-.77-1.38-1.71V72.3h14.85v3.25c0 .94-.44 1.49-1.38 1.71-.05 0-.11.06-.22.06-.11.06-.33.11-.55.17-.22.06-.5.11-.77.17l5.28 9.63c.44.77.77 1.49 1.1 2.2.33.71.55 1.43.83 2.09.22-.72.5-1.38.83-2.09.33-.72.66-1.43 1.1-2.2l5.23-9.63c-.27-.06-.61-.11-.83-.17-.22-.06-.39-.17-.5-.17-.11-.06-.22-.06-.27-.06-.94-.22-1.38-.77-1.38-1.71V72.3h14.85-.01zM847.62 102.55v9.52H818.8v-3.25c0-.94.44-1.49 1.38-1.71.05 0 .17 0 .33-.06s.44-.11.83-.17c.39-.06.99-.17 1.65-.28V77.72c-.66-.11-1.27-.22-1.65-.28-.38-.06-.66-.17-.83-.17-.17-.06-.27-.06-.33-.06-.94-.22-1.38-.77-1.38-1.71v-3.25h15.73v3.25c0 .94-.44 1.49-1.38 1.71-.05 0-.17 0-.33.06s-.44.11-.83.17c-.39.06-.99.17-1.65.28v28.22h12.82c.11-1.38.17-2.15.22-2.37.17-.66.55-1.05 1.27-1.05h2.97v.03zM892.4 109.26v2.81h-13.42v-2.81c0-.66.39-1.1 1.1-1.43.11-.06.5-.17 1.1-.44l-.22-.61-1.98-5.39h-15.84l-2.04 5.67-.17.33c.61.28.99.39 1.1.44.72.33 1.1.77 1.1 1.43v2.81h-13.42v-2.81c0-.66.39-1.1 1.1-1.43.27-.11 1.32-.55 3.03-1.27l13.42-34.27h7.59l13.48 34.27c1.71.72 2.75 1.16 3.03 1.27.72.28 1.05.77 1.05 1.43h-.01zm-23.93-41.64c-.22.44-.5.83-.83 1.16-.33.33-.77.61-1.21.77-.44.16-.94.28-1.43.28s-.94-.11-1.38-.28c-.44-.17-.83-.44-1.16-.77-.33-.33-.55-.72-.77-1.16-.22-.44-.27-.94-.27-1.43s.05-.94.27-1.38c.22-.44.44-.88.77-1.21.33-.33.72-.61 1.16-.83.44-.22.88-.28 1.38-.28.5 0 .99.06 1.43.28.44.22.88.5 1.21.83.33.33.61.77.83 1.21.22.44.33.88.33 1.38 0 .5-.11.99-.33 1.43zm-3.41 28.55h12.05l-4.57-12.38c-.22-.61-.44-1.27-.72-2.04-.27-.77-.5-1.71-.77-2.64-.27.94-.55 1.82-.77 2.64-.22.82-.5 1.49-.72 2.09l-4.51 12.32.01.01zm15.35-28.55c-.22.44-.5.83-.83 1.16-.33.33-.72.61-1.16.77-.44.16-.94.28-1.43.28s-.99-.11-1.43-.28c-.44-.17-.83-.44-1.16-.77-.33-.33-.66-.72-.83-1.16-.22-.44-.27-.94-.27-1.43s.05-.94.27-1.38c.22-.44.5-.88.83-1.21.33-.33.72-.55 1.16-.77.44-.22.94-.33 1.43-.33s.99.11 1.43.33c.44.22.83.44 1.16.77.33.33.61.77.83 1.21.22.44.27.88.27 1.38 0 .5-.05.99-.27 1.43z"/>
        </g>
        <path d="M39.55 0c-1.36.84-2.68 1.95-3.9 2.99.58 1.2 1.12 2.56 1.02 3.88.04 2.66-2.25 4.49-3.37 6.74L22.68 28.1l-4.15 6.36c-3.81 6.75-4.77 16.2-.1 22.74.45-8.02 4.22-14.63 8.81-20.9l9.24-12.28a54.56 54.56 0 0 0 5.78-9.86c1.45-4.75.78-10.53-2.72-14.16h.01zm10.76 8c-1.66.74-3.41 1.65-4.82 2.61 1.99 2.92 1.51 7.39-.37 10.2L31.86 36.7l-6.02 6.91c-6.3 7.41-6.07 19.56-2.34 28.06l4.35.04c-2.4-6.42-1.84-14.82 3.04-20.01l13.63-15.71c2.53-3.04 4.64-6.27 6.65-9.54 2.97-5.5 2.94-13.35-.86-18.45zm7.84 13.09c-1.31.44-2.38 1.48-3.53 2.31l1.03 2.4c.48 3.2-.89 6.13-2.7 8.53L35.19 51.97l-4.46 4.89c-4.34 6.46-1.36 14.79.84 21.27 3.05-.03 6.07.15 8.91-.06-.65-5.12-4.26-10.11-1.79-15.44l10.66-11.48 9.16-9.71 2.24-3.37c2.73-5.6.69-12.22-2.58-16.98h-.02zm4.97 19.34c-1.31.51-2.44 1.49-3.7 2.13.16 1.28.2 2.82-.1 4.06-.07.24 0 0-.06.23-.42.83-.84 1.76-1.67 2.46L46.27 59.37l-4.46 4.4c-2.85 4.88.84 9.7 1.68 14.39l5.96.04.37-.18-1.6-9.1.5-.8c4.29-4.35 9.65-8.11 13.19-13.37 2.82-3.8 3.77-10.19 1.2-14.31l.01-.01z" fill="#F1563F"/>
        <path d="M72.79 81.99H1c6.86 10.91 18.26 18.23 30.33 20.49 18.8 3.39 36.59-4.63 46.8-20.49h-5.34zm-38.87 22.85v70.17h12.27v-70.17s-1.45.52-2.96.79c-1.54.27-3.13.27-3.15.27-3.08-.01-6.16-1.06-6.16-1.06z" stroke="#002957" stroke-width=".26" fill="#002957"/>
    </g>
</svg>